<svg xmlns="http://www.w3.org/2000/svg" viewBox="0 0 256 256">
  <defs>
    <linearGradient id="g" x1="0" y1="0" x2="1" y2="1">
      <stop offset="0" stop-color="#6366f1" />
      <stop offset="1" stop-color="#22d3ee" />
    </linearGradient>
  </defs>
  <rect x="24" y="24" width="208" height="208" rx="56" fill="#0b1020" />
  <rect x="56" y="56" width="144" height="144" rx="32" fill="url(#g)" opacity="0.18" />
  <path
    d="M86 88h84a14 14 0 0 1 14 14v52a14 14 0 0 1-14 14H118l-18 18a6 6 0 0 1-10-4v-14H86a14 14 0 0 1-14-14v-52a14 14 0 0 1 14-14Z"
    fill="url(#g)"
  />
  <path d="M96 112h64" stroke="#0b1020" stroke-width="12" stroke-linecap="round" opacity="0.9" />
  <path d="M96 136h54" stroke="#0b1020" stroke-width="12" stroke-linecap="round" opacity="0.9" />
</svg>
